# xmcd
#
# Track frame offsets: 
#        150
#        1172
#        21003
#        39463
#        57343
#        58170
#        73029
#        88383
#        90663
#        114753
#        115324
#        131281
#        144843
#        145663
#        162926
#        167267
#        184470
#        185886
#        200014
#        215435
#        216562
#        238495
#        255771
#        275070
#        276280
#
# Disc length: 3894 seconds
#
# Revision: 0
# Processed by: cddbd v1.5.2PL0 Copyright (c) Steve Scherf et al.
# Submitted via: ExactAudioCopy v1.0b3
#
DISCID=790f3419
DTITLE=Różni wykonawcy - Okolice bluesa 100% live         cd3
DYEAR=2013
DGENRE=Blues
TTITLE0=01.Bluesferajna - Zapowiedź
TTITLE1=02.Bluesferajna - Lokal dla prawdziwych mężczyzn
TTITLE2=03.Bluesferajna - Mój dom
TTITLE3=04.Bluesferajna - Stacyjka Pana Józka
TTITLE4=05.United Blues Experrience - Zapowiedź
TTITLE5=06.United Blues Experrience - Bring Me Flowers
TTITLE6=07.United Blues Experrience - You Don t Love Me
TTITLE7=08.United Blues Experrience - Zapowiedź
TTITLE8=09.United Blues Experrience - Stranger In My Own World
TTITLE9=10.Włodek Sobczak - Zapowiedx
TTITLE10=11.Włodek Sobczaqk - Bieda blues
TTITLE11=12.Włodek Sobczak - Ostatniej nocy
TTITLE12=13.Paweł Szymański - Zapowiedź
TTITLE13=14.Paweł Szymański - Odchłań egzystencjalnej pustki
TTITLE14=15.Olek Blues - Zapowiedź
TTITLE15=16.Olek Blues - Na straży
TTITLE16=17.Maciej Balcar - Zapowiedź
TTITLE17=18.Maciej Balcar - The Fool
TTITLE18=19.Maciej Balcar - Hurt
TTITLE19=20.Adam Kulisz and Dawid Wydra - Zapowiedź
TTITLE20=21.Adam Kulisz and Dawid Wydra - Zielony krzak
TTITLE21=22.Roman Puchowski - The Rainbow
TTITLE22=23.Roman Puchowski - Dark Was The Night
TTITLE23=24.Przytuła and Kruk - Zapowiedź
TTITLE24=25.Przytuła and Kruk - Greyhound
EXTD=
EXTT0=
EXTT1=
EXTT2=
EXTT3=
EXTT4=
EXTT5=
EXTT6=
EXTT7=
EXTT8=
EXTT9=
EXTT10=
EXTT11=
EXTT12=
EXTT13=
EXTT14=
EXTT15=
EXTT16=
EXTT17=
EXTT18=
EXTT19=
EXTT20=
EXTT21=
EXTT22=
EXTT23=
EXTT24=
PLAYORDER=
